<svg width="49" height="48" viewBox="0 0 49 48" fill="none" xmlns="http://www.w3.org/2000/svg">
<g clip-path="url(#clip0_217_8387)">
<path d="M9.09811 44.55C8.86411 45.882 10.1781 46.923 11.3361 46.329L24.5061 39.561L37.6731 46.329C38.8311 46.923 40.1451 45.882 39.9111 44.553L37.4211 30.363L47.9871 20.295C48.9771 19.353 48.4671 17.631 47.1411 17.445L32.4471 15.357L25.8951 2.37601C25.7703 2.11288 25.5734 1.89056 25.3272 1.73489C25.0811 1.57922 24.7958 1.49658 24.5046 1.49658C24.2134 1.49658 23.9281 1.57922 23.682 1.73489C23.4358 1.89056 23.2389 2.11288 23.1141 2.37601L16.5621 15.36L1.86811 17.448C0.545111 17.634 0.0321107 19.356 1.01911 20.298L11.5881 30.366L9.09811 44.556V44.55ZM23.8131 36.249L12.7551 41.931L14.8371 30.06C14.8859 29.7868 14.8668 29.5057 14.7815 29.2415C14.6963 28.9774 14.5474 28.7382 14.3481 28.545L5.63011 20.235L17.7861 18.507C18.0378 18.469 18.2766 18.3705 18.4819 18.2201C18.6872 18.0696 18.853 17.8716 18.9651 17.643L24.5001 6.66901L30.0411 17.643C30.1532 17.8716 30.319 18.0696 30.5243 18.2201C30.7296 18.3705 30.9684 18.469 31.2201 18.507L43.3761 20.232L34.6581 28.542C34.4583 28.7355 34.3092 28.9752 34.2239 29.2399C34.1386 29.5046 34.1198 29.7863 34.1691 30.06L36.2511 41.931L25.1931 36.249C24.9793 36.1388 24.7422 36.0812 24.5016 36.0812C24.261 36.0812 24.0239 36.1388 23.8101 36.249H23.8131Z" fill="#868686"/>
</g>
<defs>
<clipPath id="clip0_217_8387">
<rect width="48" height="48" fill="white" transform="translate(0.5)"/>
</clipPath>
</defs>
</svg>
