<svg width="36" height="36" viewBox="0 0 36 36" fill="none" xmlns="http://www.w3.org/2000/svg">
<g clip-path="url(#clip0_217_7931)">
<path d="M6.4484 33.4125C6.2729 34.4115 7.2584 35.1923 8.1269 34.7468L18.0044 29.6708L27.8797 34.7468C28.7481 35.1923 29.7337 34.4115 29.5581 33.4148L27.6907 22.7723L35.6152 15.2213C36.3577 14.5148 35.9752 13.2233 34.9806 13.0838L23.9601 11.5178L19.0462 1.78201C18.9525 1.58466 18.8049 1.41792 18.6202 1.30117C18.4356 1.18441 18.2217 1.12244 18.0033 1.12244C17.7848 1.12244 17.5709 1.18441 17.3863 1.30117C17.2017 1.41792 17.054 1.58466 16.9604 1.78201L12.0464 11.52L1.0259 13.086C0.0336499 13.2255 -0.3511 14.517 0.38915 15.2235L8.3159 22.7745L6.4484 33.417V33.4125ZM17.4846 27.1868L9.19115 31.4483L10.7526 22.545C10.7892 22.3401 10.7749 22.1293 10.711 21.9311C10.647 21.733 10.5354 21.5536 10.3859 21.4088L3.8474 15.1763L12.9644 13.8803C13.1532 13.8518 13.3322 13.7779 13.4862 13.6651C13.6402 13.5522 13.7646 13.4037 13.8486 13.2323L17.9999 5.00176L22.1557 13.2323C22.2397 13.4037 22.364 13.5522 22.5181 13.6651C22.6721 13.7779 22.8511 13.8518 23.0399 13.8803L32.1569 15.174L25.6184 21.4065C25.4686 21.5516 25.3567 21.7314 25.2928 21.9299C25.2288 22.1285 25.2147 22.3397 25.2516 22.545L26.8131 31.4483L18.5196 27.1868C18.3593 27.1041 18.1815 27.0609 18.001 27.0609C17.8206 27.0609 17.6428 27.1041 17.4824 27.1868H17.4846Z" fill="#868686"/>
</g>
<defs>
<clipPath id="clip0_217_7931">
<rect width="36" height="36" fill="white"/>
</clipPath>
</defs>
</svg>
